<svg width="%width%" height="%height%" viewBox="0.0 0.0 16459.2 8229.6">
  <g>
    <rect
       style="fill:#1a1a1a;stroke-width:0;stroke-miterlimit:4;stroke-dasharray:none"
       id="rect938"
       width="16459.195"
       height="8229.5996"
       x="0"
       y="0.027399998" />
    <g
       id="g76"
       transform="translate(8256.0576,4213.857)">
      <path
         style="fill:#ececec;stroke-width:5.08;stroke-miterlimit:4;stroke-dasharray:none"
         d="m -6606.5916,3785.9 -220.4231,-229.87 -714.5214,-746.3789 -714.5215,-746.379 V -1075.2788 -4213.8296 H -953.65456 6348.748 l 927.1441,956.31 927.1436,956.3099 0.051,3158.48985 0.051,3158.48985 H 908.48232 -6386.1725 l -220.4231,-229.87 z m 8403.8534,175.9819 v -3.0882 L 1235.3005,2700.7719 673.33929,1442.7501 l -3.93903,-5.08 -3.93903,-5.08 23.83942,-10.636 23.83942,-10.6355 537.98623,1204.4355 537.9862,1204.4359 32.6506,72.39 32.6512,72.39 H 5003.3776 8152.3414 V 841.79926 -2281.3714 l -912.0134,-940.8291 -912.0138,-940.8291 H 2276.5755 -1775.1632 l 2.5792,8.89 2.5791,8.89 556.8132,1245.7286 556.81364,1245.7286 v 4.544 4.5441 l -25.56916,10.6261 -25.56967,10.6261 3.10337,-5.0213 3.10337,-5.0213 -565.11335,-1264.7675 -565.1134,-1264.7674 h -1505.3413 -1505.3415 -5.1581 -1678.9399 -1678.9399 v 2911.868 c 14.0785,956.69877 0,2326.2441 0,3106.6531 v 188.5823 l 919.6623,960.4481 919.6623,960.4481 h 8163.1948 z"
         id="path90" />
      <path
         style="fill:#0147a6;stroke-width:5.08"
         d="m -657.86498,3758.8841 -24.34691,-7.7079 -19.90293,-19.903 -19.90293,-19.9029 -8.31088,-28.5872 -8.31037,-28.5877 5.86689,-23.6824 5.86638,-23.683 12.06195,-18.4241 12.06195,-18.4247 16.85189,-10.4023 16.85188,-10.4023 23.68296,-5.9538 23.68245,-5.9537 28.5877,8.3103 28.58719,8.3109 19.91969,19.9197 19.9197,19.9197 8.26058,28.416 8.2611,28.4155 -6.00507,25.0307 -6.00456,25.0307 -14.29969,19.7393 -14.29918,19.7399 -22.04618,10.6172 -22.0467,10.6167 -20.31999,2.6284 -20.32,2.6278 z m 2844.79978,-645.16 -24.3469,-7.7079 -19.9029,-19.9029 -19.9029,-19.9029 -8.3109,-28.5872 -8.3104,-28.5877 5.8669,-23.6825 5.8664,-23.6829 12.0619,-18.4242 12.062,-18.4246 16.8519,-10.4024 16.8519,-10.4023 23.6829,-5.9537 23.6825,-5.9538 28.5877,8.3104 28.5872,8.3109 19.9197,19.9197 19.9197,19.9196 8.2605,28.416 8.2611,28.4155 -6.005,25.0307 -6.0046,25.0307 -14.2997,19.7393 -14.2992,19.7399 -22.0461,10.6172 -22.0467,10.6167 -20.32,2.6284 -20.32,2.6279 z m -9269.5125,-176.5066 -17.78,-5.6358 -23.0006,-23.0561 -23.0005,-23.0555 -6.2095,-20.9093 -6.2094,-20.9093 v -15.1628 -15.1628 l 5.9245,-17.2679 5.9244,-17.2679 12.3984,-16.4313 12.3983,-16.4313 15.9672,-9.8552 15.9672,-9.8557 23.6828,-5.9537 23.6828,-5.9538 28.5873,8.3104 28.5873,8.3109 19.9198,19.9197 19.9199,19.9197 8.2606,28.416 8.2607,28.4154 -6.0048,25.0307 -6.0047,25.0307 -14.2906,19.7272 -14.2906,19.7276 -26.8627,13.3863 -26.8626,13.3864 -20.5926,-0.5187 -20.5926,-0.5187 z m 5336.5397,-928.8663 -680.72,-650.4432 -58.42,-55.087 -58.4199,-55.0865 17.5066,-18.0624 17.5062,-18.062 h 3.9299 3.9294 l 478.9439,-213.95431 478.9439,-213.95415 48.8132,-21.65751 48.8132,-21.65746 10.4587,21.5267 10.4582,21.52675 -514.132,229.63398 -514.1321,229.6343 -7.4193,4.6406 -7.4199,4.6405 30.48,30.0137 30.48,30.0136 679.7777,648.2969 679.7771,648.2964 h 49.20282 49.20234 l 904.239941,-25.365 904.239949,-25.3649 h 32.34232 32.34284 l -2.37287,-8.89 -2.37287,-8.89 -222.02748,-509.2893 -222.02748,-509.2898 2.89864,-4.6898 2.89865,-4.6899 18.73504,-6.1829 18.73504,-6.1833 1.63322,4.5425 1.63373,4.5425 238.27637,546.1 238.27687,546.1 -26.30576,1.3228 -26.30627,1.3228 -1003.509234,27.8872 -1003.509206,27.8872 -2.3307,-0.3099 -2.3307,-0.3099 -680.72,-650.4432 z m -1390.8668,190.9729 -24.3469,-7.7078 -19.9031,-19.903 -19.903,-19.9029 -8.3105,-28.5872 -8.3106,-28.5877 5.8667,-23.6824 5.8667,-23.683 12.0618,-18.4241 12.0618,-18.4247 16.8521,-10.4023 16.8519,-10.4023 23.6829,-5.9538 23.6825,-5.9537 28.5877,8.3103 28.5872,8.3109 19.9197,19.9197 19.9197,19.9197 8.2606,28.416 8.2611,28.4155 -6.0051,25.0307 -6.0046,25.0306 -14.2997,19.7394 -14.2991,19.7399 -22.0462,10.6172 -22.0467,10.6166 -20.32,2.6284 -20.32,2.6279 z M 308.75889,1138.0385 225.00188,945.50095 l -7.61999,-8.50239 -7.62,-8.5024 -519.56612,-201.34304 -519.56611,-201.34295 h -9.2837 -9.2837 l -177.27016,79.38226 -177.2701,79.38226 -16.6345,7.09788 -16.6344,7.09788 17.4924,-34.41015 17.4925,-34.41014 180.1556,-80.0044 180.15557,-80.00441 547.94705,212.82705 547.94705,212.82714 77.64323,178.13986 77.64373,178.1403 -9.10692,39.3502 -9.10742,39.3502 z m -3014.39359,-267.98113 -3.0632,-15.31722 v -54.94553 -54.94548 l -25.5408,-923.58947 -25.5407,-923.58947 1.4107,-39.4995 1.4108,-39.4996 703.1933,-736.4403 703.1929,-736.4403 14.6319,11.3999 14.6319,11.3999 233.331,523.24 233.33153,523.24 5.02717,11.3913 5.02717,11.3913 -19.99133,10.1987 -19.99081,10.1987 h -1.59207 -1.59208 l -231.02058,-518.1028 -231.0201,-518.1028 -3.3223,-0.057 -3.3224,-0.057 -634.1719,664.2099 -634.1724,664.21 -44.2839,45.9998 -44.2844,45.9998 27.0353,981.58331 27.0352,981.58341 2.9327,2.93299 2.9332,2.93299 519.7307,-226.39496 519.7302,-226.39502 9.0465,20.96816 9.0469,20.9681 -3.9669,3.39863 -3.9665,3.39857 -459.74,199.83733 -459.7399,199.83734 -89.6468,39.18717 -89.6462,39.18721 -3.0638,-15.31772 z m 1316.0364,-585.58478 -24.5598,-6.74914 -2.1513,-2.15133 -2.1514,-2.15137 191.3128,-83.35528 191.3128,-83.35528 194.71635,-500.37998 194.71588,-500.37997 10.69035,-30.48 10.69035,-30.48 -88.8873,-198.11994 -88.88729,-198.12 1.51333,-1.5408 1.51384,-1.5407 32.0675,17.7734 32.0675,17.7734 82.2965,184.3994 82.2965,184.39936 -6.31037,12.72794 -6.30987,12.72794 -207.32241,533.84016 -207.3219,533.84015 -171.46676,74.48982 -171.4667,74.48981 -11.8989,-0.45415 -11.8994,-0.45415 -24.5603,-6.74914 z m 5105.6131,-1143.30845 -24.347,-7.70789 -19.9029,-19.90293 -19.9029,-19.90293 -8.3109,-28.58724 -8.3104,-28.58729 5.8669,-23.68281 5.8664,-23.68285 12.062,-18.4243 12.0619,-18.4243 16.8519,-10.4025 16.8519,-10.4024 23.6829,-5.9537 23.6825,-5.9537 28.5877,8.3106 28.5872,8.3105 19.9197,19.9198 19.9197,19.9199 8.2605,28.41563 8.2611,28.41564 -6.005,25.03063 -6.0046,25.03064 -14.2997,19.73966 -14.2992,19.73966 -22.0461,10.61709 -22.0467,10.61705 -20.32,2.62799 -20.32,2.62793 z M -7595.6576,-1262.3497 v -25.4 h 193.0399 193.04 v -1437.64 -1437.6399 h 25.4 25.4 v 1437.6399 1437.64 h 274.32 274.32 v -1437.64 -1437.6399 h 25.4 25.4 v 1437.6399 1437.64 h 274.32 274.32 v -1437.64 -1437.6399 h 25.4 25.4 v 1437.6399 1437.64 h 253.9999 254 v 25.4 25.4 h -1071.8799 -1071.8799 z m 2611.1198,-1389.38 v -891.5399 h 25.4 25.4 v 891.5399 891.54 h -25.4 -25.4 z m 1730.7929,599.0939 -24.347,-7.7079 -19.9029,-19.9029 -19.9029,-19.903 -8.3106,-28.5872 -8.3105,-28.5873 5.8666,-23.6828 5.8667,-23.6828 12.0618,-18.4243 12.0618,-18.4243 16.852,-10.4025 16.852,-10.4025 23.6828,-5.9536 23.6828,-5.9537 28.5873,8.3105 28.5874,8.3106 19.9197,19.9198 19.9197,19.9199 8.2606,28.4156 8.2611,28.4156 -6.0051,25.0307 -6.0046,25.0306 -14.2997,19.7397 -14.2991,19.7396 -22.0462,10.6171 -22.0467,10.6171 -20.32,2.6279 -20.32,2.628 z m 2387.59994,-1681.4799 -24.34692,-7.7079 -19.90293,-19.9029 -19.90293,-19.903 -8.31088,-28.5872 -8.31037,-28.5873 5.86689,-23.6828 5.86638,-23.6828 12.06195,-18.4243 12.06196,-18.4244 16.85188,-10.4024 16.85188,-10.4025 23.68296,-5.9537 23.68245,-5.9537 28.5877,8.3106 28.58719,8.3105 19.91969,19.9199 19.9197,19.9198 8.26059,28.4157 8.26109,28.4156 -6.00507,25.0306 -6.00456,25.0307 -14.29969,19.7396 -14.29918,19.7397 -22.04618,10.6171 -22.04669,10.6171 -20.32,2.6279 -20.32,2.628 z"
         id="path86" />
      <path
         style="fill:#414141;stroke-width:5.08"
         d="m -7283.32,3004.6682 -919.3976,-960.3018 -1.3331,-189.0136 -1.333,-189.0136 14.6196,15.2055 14.6197,15.2054 514.2538,537.7424 514.2538,537.7423 -3.1315,13.4376 -3.1315,13.4377 -3.105,19.0291 -3.105,19.0292 6.7571,24.1336 6.757,24.134 23.1361,23.1359 23.1361,23.1363 24.1339,6.7569 24.1338,6.7569 19.0291,-2.9413 19.029,-2.9413 10.16,-3.0566 10.16,-3.0572 480.06,501.0165 480.06,501.017 12.081,14.8555 12.0811,14.8554 h -177.2634 -177.2634 z m 14945.4414,-5465.9614 -487.6799,-509.0421 -6.3937,-8.7395 -6.3932,-8.7395 8.1879,-16.4129 8.1875,-16.4129 2.6817,-19.9938 2.6817,-19.9938 -6.7569,-24.1339 -6.7569,-24.1339 -23.1363,-23.1361 -23.1359,-23.1361 -24.134,-6.757 -24.1336,-6.7571 -19.9939,2.6818 -19.9938,2.6817 -15.0515,7.5085 -15.0511,7.5085 -481.8237,-503.2259 -481.8243,-503.2259 -1.6931,-4.1382 -1.6937,-4.1383 h 144.0327 144.0327 l 830.4804,856.878 830.4809,856.8779 82.6211,84.9369 82.6211,84.9368 -1.3411,163.5745 -1.3411,163.5745 z"
         id="path84" />
      <path
         style="fill:#a20311;stroke-width:5.08"
         d="m 5906.9815,2527.3301 v -1437.64 h -253.9999 -254 v -25.4 -25.4 h 1071.8799 1071.8799 v 25.4 25.4 h -193.0399 -193.04 v 1437.64 1437.6399 h -25.4 -25.4 v -1437.6399 -1437.64 h -274.32 -274.32 v 1437.64 1437.6399 h -25.4 -25.4 v -1437.6399 -1437.64 h -274.32 -274.32 v 1437.64 1437.6399 h -25.4 -25.4 z m -5077.16603,1196.6706 -20.02637,-7.4249 -12.99363,-9.62 -12.99362,-9.62 -11.44067,-16.8102 -11.44117,-16.8103 -5.54939,-20.609 -5.5494,-20.6096 3.15468,-19.7297 3.15519,-19.7292 9.5311,-18.5841 9.53109,-18.5837 11.92429,-10.8356 11.92428,-10.8362 17.78,-9.271 17.78,-9.2715 h 30.48 30.47999 l 20.32,10.7061 20.32,10.7061 10.83564,11.9243 10.83615,11.9243 9.271,17.78 9.27151,17.78 v 30.48 30.48 l -9.27151,17.78 -9.271,17.78 -10.83615,11.9243 -10.83564,11.9243 -19.39747,9.9461 -19.39747,9.9461 -23.78253,2.3272 -23.78252,2.3271 -20.02638,-7.4244 z M 4880.8216,2453.6701 v -891.54 h 25.4 25.4 v 891.54 891.5399 h -25.4 -25.4 z m -3533.7606,-24.0609 -15.4477,-16.5791 -237.3915,-532.6609 -237.39191,-532.6608 1.58598,-0.8895 1.58598,-0.89 19.79371,-9.0119 19.79371,-9.0114 3.59765,4.0822 3.59766,4.0823 227.46262,510.54 227.4625,510.54 3.6851,6.952 3.685,6.9524 677.641,-709.651 677.6409,-709.6511 1.4651,-21.20087 1.4656,-21.20138 -25.6002,-922.019954 -25.6001,-922.019956 v -41.91 -41.91004 l -6.35,0.2769 -6.35,0.2774 -515.62,225.11534 -515.62,225.11541 -8.7569,-18.38254 -8.7569,-18.38254 -0.1321,-5.11139 -0.132,-5.11145 506.7299,-220.61092 506.73,-220.61101 35.56,-16.173 35.56,-16.173 10.7239,-3.3328 10.7238,-3.3328 3.3097,90.2882 3.3091,90.28819 25.7805,941.085244 25.7805,941.085146 -149.4643,156.19472 -149.4643,156.1948 -555.1647,581.66 -555.1647,581.6599 -3.4117,1.3391 -3.4112,1.3386 -15.4473,-16.5786 z m 1870.3543,-397.2484 -20.0263,-7.4249 -12.9937,-9.62 -12.9936,-9.62 -11.4407,-16.8102 -11.4411,-16.8103 -5.5494,-20.609 -5.5494,-20.6096 3.1547,-19.7297 3.1551,-19.7292 9.5311,-18.5841 9.5311,-18.5837 11.9243,-10.8356 11.9243,-10.8362 17.78,-9.271 17.78,-9.2715 h 30.48 30.48 l 20.32,10.7061 20.32,10.7061 10.8356,11.9243 10.8362,11.9243 9.271,17.78 9.2715,17.78 v 30.48 30.48 l -9.2715,17.78 -9.271,17.78 -10.8362,11.9243 -10.8356,11.9242 -19.3975,9.9462 -19.3974,9.9461 -23.7826,2.3271 -23.7825,2.3272 -20.0264,-7.4244 z m -2432.89361,-909.7411 -29.76067,-16.6131 -6.32003,-6.8885 -6.32054,-6.888 -77.48574,-174.35266 -77.48574,-174.3524 212.62643,-547.81051 212.6264,-547.81046 176.8414,-77.26659 176.8409,-77.26665 30.7,6.03977 30.6994,6.03976 9.7867,3.62026 9.7861,3.62026 -193.6252,83.64967 -193.6252,83.64966 -6.9139,10.16 -6.9139,10.16 L 845.03972,217.5313 644.10186,734.75244 v 7.04205 7.04199 l 86.54491,193.9482 86.54541,193.94882 -1.45542,1.2497 -1.45491,1.2496 z m -4531.78579,-289.13894 -20.0263,-7.42462 -12.9937,-9.6201 -12.9938,-9.6201 -11.4408,-16.81017 -11.4408,-16.81018 -5.5495,-20.6093 -5.5495,-20.60931 3.1549,-19.72955 3.1549,-19.7296 9.531,-18.58386 9.5311,-18.58381 11.9243,-10.83579 11.9244,-10.83574 17.78,-9.2713 17.78,-9.27131 30.48,0.0152 30.48,0.0152 20.32,10.7061 20.32,10.70605 10.8358,11.92438 10.8358,11.92439 9.2713,17.78 9.2713,17.78 v 30.48 30.48 l -9.2713,17.77999 -9.2713,17.78 -10.8358,11.92439 -10.8358,11.92438 -19.3974,9.94608 -19.3974,9.94614 -23.7826,2.32709 -23.7826,2.3271 -20.0262,-7.42457 z m 4058.62598,-1722.38352 -538.47997,-209.59394 -8.74014,-6.9965 -8.74014,-6.9966 -76.12532,-174.8668 -76.12582,-174.8667 8.1793,-37.2232 8.17931,-37.2232 3.02616,0.03 3.02666,0.031 83.82,193.5545 83.81999,193.5545 10.16,6.6776 10.16,6.6776 513.07997,199.18845 513.07997,199.18847 8.53033,2.36895 8.53034,2.36896 189.58968,-84.82538 189.5896,-84.82538 6.8448,-2.76641 6.8448,-2.76642 -19.5448,35.93328 -19.5448,35.93327 -177.8,79.20238 -177.79995,79.20238 -2.54,-0.68184 -2.54,-0.68184 -538.47997,-209.59393 z m 1139.47902,-84.14511 -8.601,-20.47484 21.301,-10.21019 21.3009,-10.2102 497.84,-222.3647 497.8399,-222.3647 -1.2181,-3.4931 -1.2177,-3.493 -706.6681,-674.3156 -706.6681,-674.3155 -41.7871,-1.4547 -41.78701,-1.4547 -919.106567,25.5815 -919.107073,25.5815 -26.39365,1.2732 -26.39313,1.2732 223.50881,512.5342 223.50931,512.5341 -2.16611,5.644 -2.1656,5.644 -18.80006,6.7982 -18.80007,6.7982 -1.60528,-1.7364 -1.60528,-1.7363 -234.90274,-538.48 -234.90274,-538.48 -2.26568,-8.1307 -2.26568,-8.1307 67.7042,-3.1316 67.7037,-3.1316 963.04856,-26.5232 963.04859,-26.5233 739.4661,705.5246 739.4655,705.5246 -15.5346,19.3309 -15.5346,19.331 h -5.7069 -5.7069 l -522.8259,233.68 -522.826,233.67994 -5.2872,-0.0518 -5.2868,-0.0518 -8.6009,-20.47479 z m 1659.8944,-1236.39123 -20.0263,-7.4246 -12.9937,-9.6201 -12.9936,-9.6201 -11.4407,-16.8102 -11.4411,-16.8102 -5.5494,-20.6093 -5.5494,-20.6093 3.1547,-19.7295 3.1552,-19.7296 9.531,-18.5839 9.5311,-18.5838 11.9243,-10.8358 11.9243,-10.8357 17.78,-9.2713 17.78,-9.2713 30.48,0.015 30.48,0.015 20.32,10.7061 20.32,10.7061 10.8356,11.9244 10.8362,11.9244 9.271,17.78 9.2715,17.78 v 30.48 30.48 l -9.2715,17.78 -9.271,17.78 -10.8362,11.9243 -10.8356,11.9244 -19.3975,9.9461 -19.3974,9.9461 -23.7826,2.3271 -23.7825,2.3271 -20.0264,-7.4245 z m 3921.7598,-736.6 -20.0264,-7.4246 -12.9936,-9.6201 -12.9936,-9.6201 -11.4407,-16.8101 -11.4412,-16.8102 -5.5494,-20.6093 -5.5494,-20.6093 3.1547,-19.7296 3.1552,-19.7296 9.8781,-19.3625 9.878,-19.3624 18.2128,-15.0129 18.2134,-15.0129 19.3538,-5.7985 19.3532,-5.7985 h 14.0615 14.0614 l 20.9093,6.2094 20.9093,6.2095 23.0007,23.0005 23.0007,23.0006 6.2093,20.9094 6.2093,20.9094 v 14.0612 14.0613 l -5.7983,19.3536 -5.7989,19.3535 -15.0129,18.2133 -15.0129,18.2132 -20.1757,10.2931 -20.1763,10.293 -23.7825,2.3271 -23.7825,2.3271 z m -9255.7594,-182.8799 -20.0264,-7.4247 -12.9936,-9.6201 -12.9937,-9.6201 -11.4406,-16.8101 -11.4412,-16.8102 -5.5494,-20.6093 -5.5494,-20.6093 3.1547,-19.7296 3.1552,-19.7296 9.5311,-18.5838 9.5311,-18.5838 11.9243,-10.8358 11.9242,-10.8358 17.78,-9.2713 17.78,-9.2713 30.48,0.015 30.48,0.015 20.32,10.7061 20.32,10.706 10.8357,11.9244 10.8361,11.9244 9.271,17.78 9.2715,17.78 v 30.48 30.48 l -9.2715,17.78 -9.271,17.78 -10.8361,11.9244 -10.8357,11.9244 -19.3974,9.9461 -19.3975,9.9461 -23.7825,2.3271 -23.7826,2.3271 -20.0263,-7.4246 z m 2844.79978,-650.24 -20.02637,-7.4246 -12.99362,-9.6201 -12.99363,-9.6201 -11.44066,-16.8102 -11.44118,-16.8102 -5.54939,-20.6093 -5.54939,-20.6093 3.15468,-19.7296 3.15519,-19.7296 9.53109,-18.5838 9.5311,-18.5838 11.92428,-10.8358 11.92428,-10.8358 17.78,-9.2713 17.78,-9.2712 30.48,0.017 30.48,0.017 20.32,10.7061 20.31999,10.706 10.83564,11.9244 10.83615,11.9244 9.271,17.78 9.27151,17.78 v 30.48 30.48 l -9.27151,17.78 -9.271,17.78 -10.83615,11.9243 -10.83564,11.9244 -19.39747,9.9461 -19.39747,9.9461 -23.78252,2.3271 -23.78253,2.3271 -20.02638,-7.4246 z"
         id="path82" />
      <path
         style="fill:#363737;stroke-width:5.08"
         d="m 5404.0616,3655.09 v -309.88 h -236.22 -236.22 v -891.5399 -891.54 h 233.68 233.68 v -236.22 -236.22 h 254 253.9999 v 1437.64 1437.6399 h -251.4599 -251.46 z m 553.7199,-1127.7599 v -1437.64 h 274.32 274.32 v 1437.64 1437.6399 h -274.32 -274.32 z m 599.44,0 v -1437.64 h 274.32 274.32 v 1437.64 1437.6399 h -274.32 -274.32 z m 599.44,0 v -1437.64 h 193.04 193.0399 v 236.22 236.22 h 304.8 304.8 v 891.54 891.5399 h -304.8 -304.8 v 309.88 309.88 h -193.0399 -193.04 z m -6807.26668,-967.8208 -5.97916,-7.2049 26.04211,-113.1971 26.04211,-113.1972 14.64767,-60.3488 14.64767,-60.3489 -78.96605,-170.7911 -78.96656,-170.79115 -5.69011,-6.00278 -5.69062,-6.00283 -545.19217,-208.62716 -545.19166,-208.62721 h -1.53924 -1.53975 l -169.54856,78.94417 -169.5485,78.94421 -6.1052,6.14578 -6.1046,6.14584 -17.2192,33.01999 -17.2191,33.02 -43.2278,78.74 -43.2277,78.73999 -21.8313,41.91 -21.8313,41.91 h -5.7364 -5.7368 l -14.7473,-34.29 -14.7472,-34.29 -24.4831,-52.3276 -24.483,-52.3276 v -2.20132 -2.20137 l -61.434,-138.51102 -61.4339,-138.51107 -24.2159,-53.33999 -24.2163,-53.34 -24.1112,-55.15747 -24.1107,-55.15747 7.176,-7.17621 7.1765,-7.17621 111.4745,25.72608 111.475,25.72604 61.7906,14.94094 61.79,14.94094 169.1701,-78.73756 169.16959,-78.73751 4.0386,-4.0385 4.0386,-4.0385 208.23122,-543.20549 208.23122,-543.20544 0.0762,-7.67181 0.0762,-7.67177 -79.80273,-171.77654 -79.80273,-171.7765 -46.00346,-23.0043 -46.00397,-23.0044 -27.94,-16.5672 -27.94,-16.5672 -77.08595,-41.382 -77.08649,-41.3818 h -4.9199 -4.9205 l -3.0389,-7.9193 -3.0388,-7.9193 29.16525,-12.8149 29.1653,-12.8148 48.26,-22.1781 48.25999,-22.178 175.25999,-77.2127 175.25999,-77.2126 10.24331,-6.6818 10.24281,-6.6817 22.27021,-7.8573 22.2697,-7.8574 52.24983,-23.3221 52.24932,-23.3223 7.01141,6.5497 7.01142,6.5497 -23.96998,102.0404 -23.97048,102.0403 -2.82093,17.7512 -2.82092,17.7512 -8.32968,32.9149 -8.32967,32.9149 -5.19989,22.86 -5.19989,22.86 78.94116,169.7455 78.94117,169.7456 6.76554,3.7318 6.76554,3.7319 547.09057,209.3724 547.09057,209.37239 161.56936,-74.76434 161.5694,-74.76439 11.7511,-7.42279 11.7505,-7.42279 10.0508,-23.44756 10.0508,-23.4475 24.4551,-40.99514 24.4551,-40.99514 43.9131,-81.92214 43.9135,-81.9222 v -5.5291 -5.5291 l 9.2903,-4.972 9.2903,-4.972 27.1226,61.9433 27.1222,61.9432 11.3197,20.32004 11.3198,20.32 3.7409,12.7 3.7409,12.7 70.9376,160.01999 70.9377,160.02 4.2829,5.23184 4.283,5.23184 14.8996,37.94815 14.8996,37.94816 17.8552,41.02613 17.8557,41.02618 -8.0335,5.0675 -8.034,5.06751 -73.945,-17.30279 -73.9455,-17.30278 -66.04,-14.22939 -66.04,-14.22938 -33.02,-9.00877 -33.02,-9.00877 -167.64,77.57464 -167.63997,77.5747 -5.90601,5.77261 -5.906,5.7726 L 761.38534,189.4106 552.66136,734.39095 v 3.86476 3.86471 l 80.27771,172.51496 80.27771,172.51472 46.00651,22.86 46.00702,22.86 7.06526,5.7496 7.06577,5.7495 96.51999,52.196 96.51997,52.196 6.1316,0.051 6.131,0.051 2.9251,7.623 2.9256,7.6226 -3.9766,3.6393 -3.9767,3.6393 -60.63332,26.6395 -60.63285,26.6395 -15.56715,9.493 -15.56664,9.4925 h -6.26872 -6.26923 l -138.51076,61.434 -138.51127,61.4339 -53.34,24.1941 -53.34,24.194 -30.93466,13.3512 -30.93516,13.3508 -28.33878,12.5328 -28.33929,12.5329 -5.97916,-7.2045 z m -7945.05242,-3083.479 v -236.22 h -304.8 -304.8 v -891.54 -891.5399 h 304.8 304.8 v -309.88 -309.88 h 193.0399 193.04 v 1437.6399 1437.64 h -193.04 -193.0399 z m 436.8799,-1201.42 v -1437.6399 h 274.32 274.32 v 1437.6399 1437.64 h -274.32 -274.32 z m 599.44,0 v -1437.6399 h 274.32 274.32 v 1437.6399 1437.64 h -274.32 -274.32 z m 599.44,0 v -1437.6399 h 251.4599 251.46 v 309.88 309.88 h 236.22 236.22 v 891.5399 891.54 h -233.68 -233.68 v 236.22 236.22 h -254 -253.9999 z"
         id="path80" />
      <path
         style="fill:#4d4d4d;stroke-width:5.08"
         d="m 4794.4616,3655.09 v -309.88 h 304.8 304.8 v 309.88 309.88 h -304.8 -304.8 z m 2748.2798,0 v -309.88 h 304.8 304.8 v 309.88 309.88 h -304.8 -304.8 z M -7788.6976,1364.0101 V 906.81015 h 25.4 25.4 v 457.19995 457.2 h -25.4 -25.4 z m 12578.0792,-111.76 V 942.37015 h 304.8 304.8 v 309.87995 309.88 h -304.8 -304.8 z m 2753.3598,0 V 942.37015 h 304.8 304.8 v 309.87995 309.88 h -304.8 -304.8 z m 213.36,-2819.3998 v -457.2 h 25.4 25.4 v 457.2 457.1999 h -25.4 -25.4 z m -13207.9992,116.84 v -309.88 h 232.8768 232.8768 l 69.3832,3.3275 69.3832,3.3276 v 306.5524 306.5525 h -302.26 -302.26 z m -2753.3598,-2.54 v -307.34 h 304.8 304.8 v 237.9568 237.9568 l -3.3276,69.3832 -3.3275,69.3832 h -301.4725 -301.4724 z m 0,-2400.2999 v -309.88 h 304.8 304.8 v 309.88 309.88 h -304.8 -304.8 z m 2748.2798,0 v -309.88 l 240.03,0.021 240.03,-0.2328 129.54,0.2059 0,312.9568 v 306.8098 h -304.8 -304.8 v -309.88 z"
         id="path78" />
    </g>
  </g>
</svg>
