<svg
   width="%width%"
   height="%height%"
   viewBox="0 0 16543.02 8016.2397"
   version="1.1"
   id="svg5">
<g
     id="g487"><g
       id="g2556"
       transform="rotate(180,8271.51,4008.1199)"><path
         style="fill:#1a1a1a;fill-opacity:1;stroke-width:5.08"
         d="M 1417.32,5336.5398 V 2707.6399 h 944.88 944.88 v 662.94 662.9399 h -198.12 -198.12 v 1234.44 1234.44 h 462.28 462.28 v 731.5199 731.52 H 2626.36 1417.32 Z M 3987.8,7233.9197 v -731.5199 h 434.34 434.34 v 731.5199 731.52 H 4422.14 3987.8 Z m 919.4807,-1261.1099 6e-4,-1992.6299 -774.7006,1.4545 -774.7007,1.4544 V 2624.0044 1264.92 h 1676.4 1676.4 V 657.85998 50.799998 H 7482.84 8255 V 4008.1199 7965.4397 H 6581.14 4907.28 Z M 7136.545,7186.8286 c 11.5987,-7.6753 27.3944,-23.4848 35.1018,-35.1312 12.4176,-18.765 14.0132,-25.8867 14.0132,-62.5577 0,-36.671 -1.5956,-43.7926 -14.0132,-62.5576 -7.7074,-11.6464 -23.5427,-27.4818 -35.1891,-35.1892 -18.7651,-12.4175 -25.8867,-14.0132 -62.5577,-14.0132 -36.671,0 -43.7926,1.5957 -62.5577,14.0132 -32.894,21.7683 -48.5815,49.4579 -50.8594,89.7707 -2.9362,51.9633 17.7856,89.7413 61.3552,111.8576 31.6931,16.0868 85.4233,13.1861 114.7069,-6.1926 z m 0,-1224.2799 c 11.5987,-7.6754 27.3944,-23.4849 35.1018,-35.1313 12.4176,-18.765 14.0132,-25.8866 14.0132,-62.5576 0,-36.671 -1.5956,-43.7927 -14.0132,-62.5577 -7.7074,-11.6464 -23.5427,-27.4818 -35.1891,-35.1891 -18.7651,-12.4176 -25.8867,-14.0132 -62.5577,-14.0132 -36.671,0 -43.7926,1.5956 -62.5577,14.0132 -32.894,21.7683 -48.5815,49.4578 -50.8594,89.7707 -2.9362,51.9633 17.7856,89.7412 61.3552,111.8575 31.6931,16.0868 85.4233,13.1862 114.7069,-6.1925 z m 0,-1224.28 c 11.5987,-7.6756 27.3944,-23.4847 35.1018,-35.1313 12.4176,-18.7648 14.0132,-25.8868 14.0132,-62.5576 0,-36.6707 -1.5956,-43.7927 -14.0132,-62.5576 -7.7074,-11.6466 -23.5427,-27.4817 -35.1891,-35.189 -18.7651,-12.418 -25.8867,-14.0134 -62.5577,-14.0134 -36.671,0 -43.7926,1.5954 -62.5577,14.0134 -32.894,21.7683 -48.5815,49.4577 -50.8594,89.7704 -2.9362,51.9636 17.7856,89.7416 61.3552,111.8575 31.6931,16.0871 85.4233,13.1865 114.7069,-6.1924 z m 10.16,-1219.1999 c 11.5987,-7.6756 27.3944,-23.4847 35.1018,-35.1313 12.4176,-18.7649 14.0132,-25.8869 14.0132,-62.5576 0,-36.6708 -1.5956,-43.7928 -14.0132,-62.5576 -7.7074,-11.6466 -23.5427,-27.4817 -35.1891,-35.189 -18.7651,-12.418 -25.8867,-14.0134 -62.5577,-14.0134 -36.671,0 -43.7926,1.5954 -62.5577,14.0134 -32.894,21.7683 -48.5815,49.4576 -50.8594,89.7703 -2.9362,51.9637 17.7856,89.7417 61.3552,111.8575 31.6931,16.0871 85.4233,13.1865 114.7069,-6.1923 z M 8305.8,4008.1199 V 50.799998 h 756.92 756.92 V 657.85998 1264.92 h 1676.4 1676.4 v 1359.2464 1359.2464 l -774.701,-1.6165 -774.701,-1.6164 V 5972.8098 7965.4397 H 9964.42 8305.8 Z m 1233.585,3183.7887 c 11.5987,-7.6753 27.3944,-23.4848 35.1018,-35.1312 12.4176,-18.765 14.0132,-25.8867 14.0132,-62.5577 0,-36.671 -1.5956,-43.7926 -14.0132,-62.5576 -7.7074,-11.6464 -23.5427,-27.4818 -35.1891,-35.1892 -18.7651,-12.4175 -25.8867,-14.0132 -62.5577,-14.0132 -36.671,0 -43.7926,1.5957 -62.5577,14.0132 -32.894,21.7683 -48.5815,49.4579 -50.8594,89.7707 -2.9362,51.9633 17.7856,89.7413 61.3552,111.8576 31.6931,16.0868 85.4233,13.1861 114.7069,-6.1926 z m 0,-1224.2799 c 11.5987,-7.6754 27.3944,-23.4849 35.1018,-35.1313 12.4176,-18.765 14.0132,-25.8866 14.0132,-62.5576 0,-36.671 -1.5956,-43.7927 -14.0132,-62.5577 -7.7074,-11.6464 -23.5427,-27.4818 -35.1891,-35.1891 -18.7651,-12.4176 -25.8867,-14.0132 -62.5577,-14.0132 -36.671,0 -43.7926,1.5956 -62.5577,14.0132 -32.894,21.7683 -48.5815,49.4578 -50.8594,89.7707 -2.9362,51.9633 17.7856,89.7412 61.3552,111.8575 31.6931,16.0868 85.4233,13.1862 114.7069,-6.1925 z m 0,-1224.28 c 11.5987,-7.6756 27.3944,-23.4847 35.1018,-35.1313 12.4176,-18.7648 14.0132,-25.8868 14.0132,-62.5576 0,-36.6707 -1.5956,-43.7927 -14.0132,-62.5576 -7.7074,-11.6466 -23.5427,-27.4817 -35.1891,-35.189 -18.7651,-12.418 -25.8867,-14.0134 -62.5577,-14.0134 -36.671,0 -43.7926,1.5954 -62.5577,14.0134 -32.894,21.7683 -48.5815,49.4577 -50.8594,89.7704 -2.9362,51.9636 17.7856,89.7416 61.3552,111.8575 31.6931,16.0871 85.4233,13.1865 114.7069,-6.1924 z m 10.16,-1219.1999 c 11.5987,-7.6756 27.3944,-23.4847 35.1018,-35.1313 12.4176,-18.7649 14.0132,-25.8869 14.0132,-62.5576 0,-36.6708 -1.5956,-43.7928 -14.0132,-62.5576 -7.7074,-11.6466 -23.5427,-27.4817 -35.1891,-35.189 -18.7651,-12.4181 -25.8867,-14.0134 -62.5577,-14.0134 -36.671,0 -43.7926,1.5953 -62.5577,14.0134 -32.894,21.7683 -48.5815,49.4576 -50.8594,89.7703 -2.9362,51.9637 17.7856,89.7417 61.3552,111.8575 31.6931,16.0871 85.4233,13.1865 114.7069,-6.1923 z m 2124.295,3709.7709 v -731.5199 h 452.12 452.12 v 731.5199 731.52 h -452.12 -452.12 z m 1056.64,0 v -731.5199 h 439.42 439.42 v -1234.44 -1234.44 h -193.04 -193.04 v -662.9399 -662.94 h 944.88 944.88 v 2628.8999 2628.8999 h -1191.26 -1191.26 z m 2433.32,368.3 v -317.5 h 203.2 203.2 v 317.5 317.5 h -203.2 -203.2 z m -14193.52,-5.08 v -317.5 h 198.12 198.12 v 317.5 317.5 H 1168.4 970.28 Z m 14193.52,-642.62 v -228.6 h 187.96 187.96 v 228.6 228.6 h -187.96 -187.96 z m -14163.04,-5.08 v -228.6 h 182.88 182.88 v 228.6 228.6 H 1183.64 1000.76 Z M 15163.8,6393.1798 v -231.14 h 205.74 205.74 v 231.14 231.14 h -205.74 -205.74 z m -14198.6,-5.08 v -231.14 h 200.66 200.66 v 231.14 231.14 H 1165.86 965.2 Z m 14198.6,-556.26 v -228.6 h 205.74 205.74 v 228.6 228.6 h -205.74 -205.74 z m -14198.6,-5.08 v -228.6 h 200.66 200.66 v 228.6 228.6 H 1165.86 965.2 Z m 14198.6,-556.26 v -231.14 h 187.96 187.96 v 231.14 231.14 h -187.96 -187.96 z m -14163.04,-5.08 v -231.14 h 182.88 182.88 v 231.14 231.14 h -182.88 -182.88 z m 14163.04,-553.72 v -226.06 h 205.74 205.74 v 226.06 226.06 h -205.74 -205.74 z m -14198.6,-5.08 v -226.06 h 200.66 200.66 v 226.06 226.06 H 1165.86 965.2 Z m 14198.6,-551.18 v -228.5999 h 205.74 205.74 v 228.5999 228.6 h -205.74 -205.74 z m -14198.6,-5.08 v -228.5999 h 200.66 200.66 v 228.5999 228.6 H 1165.86 965.2 Z m 14198.6,-556.2599 v -231.14 h 187.96 187.96 v 231.14 231.14 h -187.96 -187.96 z m -14163.04,-5.08 v -231.14 h 182.88 182.88 v 231.14 231.14 h -182.88 -182.88 z m 14163.04,-604.52 v -276.86 h 121.92 121.92 v -48.26 -48.26 h 78.74 78.74 v 325.12 325.12 h -200.66 -200.66 z m -14188.44,-53.34 v -325.12 h 86.36 86.36 v 50.8 50.8 h 109.22 109.22 v 274.32 274.32 H 1170.94 975.36 Z m 14432.28,-525.78 v -104.14 h -1092.2 -1092.2 v -543.56 -543.5599 h -1676.4 -1676.4 V 632.45998 50.799998 h 3172.035 3172.036 l -1.471,816.609972 c -0.809,449.13553 -1.761,1002.34743 -2.115,1229.35993 l -0.645,412.75 h -401.32 -401.32 z m 863.6,33.02 v -71.12 h 106.68 106.68 v -17.78 -17.78 h -106.68 -106.68 v -76.2 -76.2 h 109.22 109.22 v 165.1 165.1 h -109.22 -109.22 z M 50.8,2415.5399 v -88.9 h 106.68 106.68 v 88.9 88.9 H 157.48 50.8 Z M 325.12,1277.62 V 50.799998 H 3492.5 6659.88 V 632.45998 1214.12 h -1676.4 -1676.4 v 543.5599 543.56 h -1079.5 -1079.5 v 101.6 101.6 H 736.6 325.12 Z M 50.8,2166.6199 v -124.46 h 106.68 106.68 v 124.46 124.46 H 157.48 50.8 Z m 16220.44,-436.0535 c 0,-56.8224 1.506,-168.6205 3.347,-248.4402 l 3.346,-145.1267 105.874,70.6991 105.873,70.6993 v 177.741 177.741 h -109.22 -109.22 z M 50.8,1572.4908 v -129.3092 l 104.43846,-68.8108 c 57.44116,-37.846 105.44716,-68.8108 106.68,-68.8108 1.23285,0 2.24154,89.1539 2.24154,198.1199 v 198.12 H 157.48 50.8 Z M 16276.32,1051.6189 V 853.43997 h 106.68 106.68 v 126.94107 126.94106 l -106.68,71.2379 -106.68,71.2379 z M 153.67,1144.3881 50.8,1075.3371 V 895.80854 716.27997 h 106.68 106.68 v 248.91999 c 0,136.90604 -1.7145,248.76674 -3.81,248.57954 -2.0955,-0.1874 -50.1015,-31.4134 -106.68,-69.3914 z M 16276.32,383.53999 v -124.46 h 106.68 106.68 v 124.46 124.45999 H 16383 16276.32 Z M 50.8,299.71999 v -76.2 h 106.68 106.68 v 76.2 76.2 H 157.48 50.8 Z m 16225.52,-162.56 V 50.799998 h 106.68 106.68 v 86.359992 86.36 H 16383 16276.32 Z M 50.8,119.38 V 50.799998 H 157.48 264.16 V 119.38 187.95999 H 157.48 50.8 Z"
         id="path503" /><path
         style="fill:#ececec;stroke-width:5.08"
         d="M 0,5029.1998 V 2042.1599 h 25.4 25.4 v 124.46 124.46 h 106.68 106.68 v -124.46 -124.46 h 30.48 30.48 v 231.14 231.14 h -30.48 -30.48 v -88.9 -88.9 H 157.48 50.8 v 2819.3999 2819.3999 h 375.92 375.92 v -25.4 -25.4 h 281.94 281.94 v 25.4 25.4 H 4810.76 8255 V 4008.1199 50.799998 H 4290.06 325.12 v 162.559992 162.56 h -30.48 -30.48 v -76.2 -76.2 H 157.48 50.8 v 76.2 76.2 H 25.4 0 V 187.95999 0 h 8270.24 8270.24 v 253.99999 253.99999 h -25.4 -25.4 v -124.45999 -124.46 H 16383 16276.32 v 124.46 124.45999 h -30.48 -30.48 V 279.39999 50.799998 H 12260.58 8305.8 V 4008.1199 7965.4397 h 3429 3429 v -22.86 -22.86 h 281.94 281.94 v 25.4 25.4 h 381 381 V 5074.9198 2179.3199 h 25.4 25.4 V 5097.7798 8016.2397 H 8270.24 0 Z M 16489.68,137.15999 V 50.799998 H 16383 16276.32 v 86.359992 86.36 h 106.68 106.68 z M 264.16,119.38 V 50.799998 H 157.48 50.8 V 119.38 187.95999 H 157.48 264.16 Z M 15163.8,7233.9197 v -50.8 h 281.94 281.94 v 50.8 50.8 h -281.94 -281.94 z m -14361.16,-5.08 v -50.8 h 281.94 281.94 v 50.8 50.8 H 1084.58 802.64 Z M 15163.8,6675.1198 v -50.8 h 281.94 281.94 v 50.8 50.7999 h -281.94 -281.94 z m -14361.16,-5.08 v -50.8 h 281.94 281.94 v 50.8 50.7999 H 1084.58 802.64 Z m 14361.16,-558.8 v -50.8 h 281.94 281.94 v 50.8 50.8 h -281.94 -281.94 z m -14361.16,-5.08 v -50.8 h 281.94 281.94 v 50.8 50.8 H 1084.58 802.64 Z m 14361.16,-553.72 v -50.8 h 281.94 281.94 v 50.8 50.8 h -281.94 -281.94 z m -14361.16,-5.08 v -50.8 h 281.94 281.94 v 50.8 50.8 H 1084.58 802.64 Z m 14361.16,-558.8 v -50.8 h 281.94 281.94 v 50.8 50.8 h -281.94 -281.94 z m -14361.16,-5.08 v -50.8 h 281.94 281.94 v 50.8 50.8 H 1084.58 802.64 Z m 14361.16,-548.64 v -50.8 h 281.94 281.94 v 50.8 50.8 h -281.94 -281.94 z m -14361.16,-5.08 v -50.8 h 281.94 281.94 v 50.8 50.8 H 1084.58 802.64 Z m 4062.821,-450.7216 c 9.1305,-1.1306 22.8465,-1.1073 30.48,0.052 7.6334,1.1592 0.1631,2.0842 -16.601,2.0557 -16.764,-0.03 -23.0096,-0.9769 -13.879,-2.1075 z m 6786.988,-0.085 c 17.572,-0.9948 45.004,-0.9867 60.96,0.02 15.956,1.0049 1.579,1.8188 -31.949,1.8088 -33.528,-0.01 -46.583,-0.8322 -29.011,-1.827 z M 15163.8,3876.0399 v -50.8 h 281.94 281.94 v 50.8 50.8 h -281.94 -281.94 z m -14361.16,-5.08 v -50.8 h 281.94 281.94 v 50.8 50.8 H 1084.58 802.64 Z m 14361.16,-558.8 v -50.8 h 281.94 281.94 v 50.8 50.8 h -281.94 -281.94 z m -14361.16,-5.08 v -50.8 h 281.94 281.94 v 50.8 50.8 H 1084.58 802.64 Z m 14361.16,-734.06 v -38.1 h -970.28 -970.28 v -30.48 -30.48 h 970.28 970.28 v 17.78 17.78 h 281.94 281.94 v 50.8 50.8 h -281.94 -281.94 z m -14361.16,-17.78 v -50.8 h 281.94 281.94 v -15.24 -15.24 h 970.28 970.28 v 30.48 30.48 H 2336.8 1366.52 v 35.56 35.56 H 1084.58 802.64 Z m 15407.64,-210.82 v -165.1 h 30.48 30.48 v 76.2 76.2 h 106.68 106.68 v 17.78 17.78 h -106.68 -106.68 v 71.12 71.12 h -30.48 -30.48 z m 1.269,-1000.76 1.271,-492.75993 31.75,1.70347 31.75,1.70343 v 197.74553 197.7455 l 106.68,-71.2379 106.68,-71.2379 V 980.38104 853.43997 h 25.4 25.4 v 489.73113 489.7311 l -52.07,3.3563 c -28.638,1.8459 -88.646,2.575 -133.35,1.6202 -79.269,-1.6931 -78.609,-1.7641 26.67,-2.8674 l 107.95,-1.1314 v -177.741 -177.741 l -105.873,-70.6993 -105.874,-70.6991 -3.346,145.1267 c -1.841,79.8197 -3.347,191.4147 -3.347,247.989 v 102.8623 l -30.481,1.7212 -30.482,1.7212 z M 0,1209.04 V 716.27997 h 25.4 25.4 v 179.52897 179.52896 l 104.1197,69.391 c 57.26582,38.1651 105.27182,69.3911 106.68,69.3911 1.40816,0 2.5603,-112.014 2.5603,-248.92004 V 716.27997 h 30.48 30.48 V 1209.04 1701.7999 h -30.48 -30.48 v -198.12 c 0,-108.966 -1.00869,-198.1199 -2.24154,-198.1199 -1.23284,0 -49.23884,30.9648 -106.68,68.8108 L 50.8,1443.1816 v 129.3092 129.3091 H 25.4 0 Z"
         id="path501" /><path
         style="fill:#3a3a3a;fill-opacity:1;stroke-width:5.08"
         d="m 15773.4,7513.3197 c 0,-9.9842 3.387,-10.16 195.58,-10.16 192.193,0 195.58,0.1778 195.58,10.16 0,9.9843 -3.387,10.16 -195.58,10.16 -192.193,0 -195.58,-0.1778 -195.58,-10.16 z m -15397.48,-5.08 c 0,-9.9842 3.38667,-10.16 195.58,-10.16 192.19332,0 195.58,0.1778 195.58,10.16 0,9.9843 -3.38668,10.16 -195.58,10.16 -192.19333,0 -195.58,-0.1778 -195.58,-10.16 z m 15392.4,-1112.5199 c 0,-9.9843 3.387,-10.16 195.58,-10.16 192.193,0 195.58,0.1778 195.58,10.16 0,9.9842 -3.387,10.16 -195.58,10.16 -192.193,0 -195.58,-0.1778 -195.58,-10.16 z M 381,6390.6398 c 0,-9.9843 3.38667,-10.16 195.58,-10.16 192.19332,0 195.58,0.1778 195.58,10.16 0,9.9842 -3.38668,10.16 -195.58,10.16 -192.19333,0 -195.58,-0.1778 -195.58,-10.16 z m 15387.32,-558.8 c 0,-9.9842 3.387,-10.16 195.58,-10.16 192.193,0 195.58,0.1778 195.58,10.16 0,9.9842 -3.387,10.16 -195.58,10.16 -192.193,0 -195.58,-0.1778 -195.58,-10.16 z M 381,5826.7598 c 0,-9.9842 3.38667,-10.16 195.58,-10.16 192.19332,0 195.58,0.1778 195.58,10.16 0,9.9842 -3.38668,10.16 -195.58,10.16 -192.19333,0 -195.58,-0.1778 -195.58,-10.16 z m 15392.4,-1112.52 c 0,-9.9841 3.387,-10.16 195.58,-10.16 192.193,0 195.58,0.1758 195.58,10.16 0,9.9841 -3.387,10.16 -195.58,10.16 -192.193,0 -195.58,-0.1757 -195.58,-10.16 z m -15397.48,-5.08 c 0,-9.9841 3.38667,-10.16 195.58,-10.16 192.19332,0 195.58,0.1758 195.58,10.16 0,9.9841 -3.38668,10.16 -195.58,10.16 -192.19333,0 -195.58,-0.1757 -195.58,-10.16 z m 15387.32,-553.72 c 0,-9.984 3.387,-10.16 195.58,-10.16 192.193,0 195.58,0.1758 195.58,10.16 0,9.9841 -3.387,10.16 -195.58,10.16 -192.193,0 -195.58,-0.1757 -195.58,-10.16 z m -15377.16,-5.08 c 0,-9.984 3.38667,-10.16 195.58,-10.16 192.19332,0 195.58,0.1758 195.58,10.16 0,9.9841 -3.38668,10.16 -195.58,10.16 -192.19333,0 -195.58,-0.1759 -195.58,-10.16 z M 15768.32,3037.8399 c 0,-9.9841 3.387,-10.16 195.58,-10.16 192.193,0 195.58,0.1758 195.58,10.16 0,9.9841 -3.387,10.16 -195.58,10.16 -192.193,0 -195.58,-0.1758 -195.58,-10.16 z M 381,3032.7599 c 0,-9.9841 3.38667,-10.16 195.58,-10.16 192.19332,0 195.58,0.1758 195.58,10.16 0,9.9841 -3.38668,10.16 -195.58,10.16 -192.19333,0 -195.58,-0.1758 -195.58,-10.16 z m 767.08,-375.92 v -50.8 h 109.22 109.22 v 50.8 50.8 H 1257.3 1148.08 Z m 269.24,-35.56 v -86.36 h 944.88 944.88 v 86.36 86.36 H 2362.2 1417.32 Z m 11805.92,0 v -86.36 h 944.88 944.88 v 86.36 86.36 h -944.88 -944.88 z m 1940.56,38.1 v -48.26 h 121.92 121.92 v 48.26 48.26 h -121.92 -121.92 z m 0,-167.64 v -17.78 h -970.28 -970.28 v -86.36 -86.36 h 1092.2 1092.2 v 104.14 104.14 h -121.92 -121.92 z m -14015.72,-88.9 v -101.6 h 1079.5 1079.5 v 86.36 86.36 H 2336.8 1366.52 v 15.24 15.24 H 1257.3 1148.08 Z m 15064.638,-396.24 0.102,-170.18 30.48,-0.3627 30.48,-0.3627 -29.143,1.8733 -29.142,1.8733 -1.439,168.6693 -1.439,168.6693 0.102,-170.18 z m 288.392,-171.2785 c 7.683,-1.164 20.256,-1.164 27.94,0 7.683,1.1639 1.397,2.1163 -13.97,2.1163 -15.367,0 -21.654,-0.9524 -13.97,-2.1163 z m -288.521,-988.27009 c -1.348,-3.51373 -1.815,-81.80923 -1.038,-173.98999 l 1.413,-167.60134 1.198,171.37964 1.198,171.37958 163.83,1.41326 163.83,1.4133 -163.99,1.19711 c -127.923,0.9338 -164.528,-0.20778 -166.441,-5.19156 z"
         id="path499" /><path
         style="fill:#727172;stroke-width:5.08"
         d="m 15744.132,7535.3359 c -9.494,-3.8252 -16.861,-20.1188 -13.296,-29.4091 4.961,-12.9281 20.682,-19.2004 32.404,-12.9271 13.572,7.2634 13.786,33.2618 0.335,40.4612 -5.404,2.8926 -10.547,5.0785 -11.43,4.858 -0.882,-0.2184 -4.487,-1.5631 -8.012,-2.983 z m 429.318,-2.1031 c -22.604,-13.1658 -2.045,-52.8823 20.993,-40.5531 18.322,9.8059 18.497,31.3802 0.335,41.1012 -11.031,5.9035 -10.213,5.9248 -21.326,-0.5481 z M 338.60734,7524.3499 c -10.92733,-12.0746 -10.6448,-22.6705 0.88266,-33.1028 17.50636,-15.843 36.43,-7.016 36.43,16.9926 0,24.4363 -21.41147,33.6804 -37.31266,16.1102 z m 434.56866,3.1938 c -3.3528,-3.3528 -6.096,-12.0396 -6.096,-19.304 0,-24.4363 21.41149,-33.6804 37.31265,-16.1102 10.92733,12.0747 10.64484,22.6705 -0.88265,33.1028 -10.97001,9.9279 -21.88586,10.7595 -30.334,2.3114 z M 9451.34,7203.9589 c -53.941,-13.8013 -85.5924,-54.3956 -85.5629,-109.7392 0.051,-65.7275 45.2795,-110.9792 110.9629,-110.9792 65.693,0 110.9467,45.2674 110.9467,110.9792 0,60.4327 -38.4739,103.8469 -98.3138,110.9376 -12.5359,1.4854 -29.6509,0.9459 -38.0329,-1.1984 z m -2402.84,-5.08 c -53.941,-13.8013 -85.5924,-54.3956 -85.5629,-109.7392 0.051,-65.7275 45.2795,-110.9792 110.9629,-110.9792 65.693,0 110.9467,45.2674 110.9467,110.9792 0,60.4327 -38.4739,103.8469 -98.3138,110.9376 -12.5359,1.4854 -29.6509,0.9459 -38.0329,-1.1984 z m 8917.94,-244.3592 v -228.6 h 261.62 261.62 v 228.6 228.6 h -261.62 -261.62 z M 50.8,6949.4397 v -228.6 h 261.62 261.62 v 228.6 228.6 H 312.42 50.8 Z M 3271.52,5267.9598 v -1234.44 h 614.68 614.68 v 1234.44 1234.44 H 3886.2 3271.52 Z m 8747.76,0 v -1234.44 h 614.68 614.68 v 1234.44 1234.44 h -614.68 -614.68 z m 3719.772,1149.7762 c -9.494,-3.8253 -16.861,-20.1189 -13.296,-29.4092 4.961,-12.9281 20.682,-19.2003 32.404,-12.927 13.572,7.2633 13.786,33.2618 0.335,40.4611 -5.404,2.8926 -10.547,5.0785 -11.43,4.858 -0.882,-0.2184 -4.487,-1.5631 -8.012,-2.9829 z m 429.318,-2.1031 c -22.604,-13.1659 -2.045,-52.8823 20.993,-40.5532 18.322,9.8059 18.497,31.3802 0.335,41.1013 -11.031,5.9035 -10.213,5.9248 -21.326,-0.5481 z M 343.68734,6406.75 c -10.92733,-12.0747 -10.6448,-22.6706 0.88266,-33.1028 17.50636,-15.843 36.43,-7.016 36.43,16.9926 0,24.4363 -21.41147,33.6804 -37.31266,16.1102 z m 434.56866,3.1938 c -3.3528,-3.3528 -6.096,-12.0396 -6.096,-19.304 0,-24.4364 21.41149,-33.6804 37.31265,-16.1102 10.92733,12.0746 10.64484,22.6705 -0.88265,33.1028 -10.97001,9.9278 -21.88586,10.7594 -30.334,2.3114 z M 9451.34,5979.679 c -53.941,-13.8014 -85.5924,-54.3957 -85.5629,-109.7392 0.051,-65.7276 45.2795,-110.9792 110.9629,-110.9792 65.693,0 110.9467,45.2674 110.9467,110.9792 0,60.4327 -38.4739,103.8469 -98.3138,110.9375 -12.5359,1.4854 -29.6509,0.9459 -38.0329,-1.1983 z m -2402.84,-5.08 c -53.941,-13.8014 -85.5924,-54.3957 -85.5629,-109.7392 0.051,-65.7276 45.2795,-110.9792 110.9629,-110.9792 65.693,0 110.9467,45.2674 110.9467,110.9792 0,60.4327 -38.4739,103.8469 -98.3138,110.9375 -12.5359,1.4854 -29.6509,0.9459 -38.0329,-1.1983 z m 8690.552,-120.743 c -9.494,-3.8252 -16.861,-20.1188 -13.296,-29.4091 4.961,-12.9281 20.682,-19.2004 32.404,-12.9271 13.572,7.2634 13.786,33.2618 0.335,40.4612 -5.404,2.8925 -10.547,5.0784 -11.43,4.858 -0.882,-0.2185 -4.487,-1.5631 -8.012,-2.983 z m 429.318,-2.1031 c -22.604,-13.1659 -2.045,-52.8823 20.993,-40.5532 18.322,9.806 18.497,31.3802 0.335,41.1013 -11.031,5.9035 -10.213,5.9248 -21.326,-0.5481 z M 351.73179,5848.776 c -9.4944,-3.8252 -16.86092,-20.1188 -13.29592,-29.4091 4.96098,-12.9281 20.68279,-19.2004 32.40413,-12.9271 13.57164,7.2634 13.78624,33.2618 0.33396,40.4612 -5.40432,2.8925 -10.54782,5.0784 -11.43,4.858 -0.88218,-0.2185 -4.48766,-1.5631 -8.01217,-2.983 z M 781.05,5846.6729 c -22.60448,-13.1659 -2.04521,-52.8823 20.99234,-40.5532 18.32239,9.806 18.4977,31.3802 0.33375,41.1013 -11.03122,5.9035 -10.21318,5.9248 -21.32629,-0.5481 z m 15185.39,-576.1731 v -231.14 h 261.62 261.62 v 231.14 231.14 h -261.62 -261.62 z M 50.8,5265.4198 v -231.14 h 261.62 261.62 v 231.14 231.14 H 312.42 50.8 Z m 9400.54,-510.0211 c -53.941,-13.8011 -85.5924,-54.3955 -85.5629,-109.7389 0.051,-65.7276 45.2795,-110.9792 110.9629,-110.9792 65.693,0 110.9467,45.2672 110.9467,110.9792 0,60.433 -38.4739,103.847 -98.3138,110.9374 -12.5359,1.4855 -29.6509,0.9461 -38.0329,-1.1985 z m -2402.84,-5.08 c -53.941,-13.8011 -85.5924,-54.3955 -85.5629,-109.7389 0.051,-65.7276 45.2795,-110.9792 110.9629,-110.9792 65.693,0 110.9467,45.2672 110.9467,110.9792 0,60.433 -38.4739,103.847 -98.3138,110.9374 -12.5359,1.4855 -29.6509,0.9461 -38.0329,-1.1985 z m 8686.556,-23.0382 c -12.009,-18.3284 -2.205,-34.5028 19.631,-32.3873 13.491,1.3068 16.444,3.9341 17.81,15.8438 3.205,27.9514 -22.519,39.3176 -37.441,16.5435 z m 434.839,5.0465 c -3.338,-4.022 -5.332,-13.7375 -4.432,-21.59 1.366,-11.9097 4.319,-14.537 17.81,-15.8438 12.264,-1.1882 17.568,1.042 21.95,9.2306 11.814,22.0734 -19.601,47.1526 -35.328,28.2032 z M 337.57606,4722.2005 c -12.00925,-18.3284 -2.20527,-34.5028 19.63146,-32.3873 13.49077,1.3068 16.44394,3.9341 17.80955,15.8438 3.20499,27.9514 -22.51885,39.3176 -37.44101,16.5435 z m 434.83891,5.0465 c -3.33802,-4.022 -5.33243,-13.7375 -4.43205,-21.59 1.3656,-11.9097 4.31881,-14.537 17.80956,-15.8438 12.265,-1.1882 17.56868,1.042 21.95104,9.2306 11.81334,22.0734 -19.60199,47.1526 -35.32855,28.2032 z M 15725.142,4168.8556 c -8.921,-13.6154 -5.8,-26.5548 8.215,-34.0556 14.349,-7.6791 29.883,2.6148 29.883,19.8026 0,26.6494 -24.075,35.656 -38.098,14.253 z m 435.354,5.8882 c -9.82,-9.8201 -7.392,-33.4929 4.064,-39.624 21.455,-11.4821 41.615,12.862 27.938,33.7358 -8.527,13.0135 -22.336,15.5543 -32.002,5.8882 z m -15811.72866,-8.274 c -10.92733,-12.0745 -10.6448,-22.6704 0.88266,-33.1026 17.50636,-15.8431 36.43,-7.0162 36.43,16.9926 0,24.4361 -21.41147,33.6806 -37.31266,16.11 z m 434.56866,3.194 c -3.3528,-3.3528 -6.096,-12.0396 -6.096,-19.304 0,-24.436 21.41149,-33.6806 37.31265,-16.11 10.92733,12.0746 10.64484,22.6705 -0.88265,33.1027 -10.97001,9.9277 -21.88586,10.7595 -30.334,2.3113 z M 15966.44,3594.0999 v -231.14 h 261.62 261.62 v 231.14 231.14 h -261.62 -261.62 z M 50.8,3589.0199 v -231.14 h 261.62 261.62 v 231.14 231.14 H 312.42 50.8 Z m 9410.7,-52.8211 c -53.941,-13.8012 -85.5924,-54.3956 -85.5629,-109.7389 0.051,-65.7277 45.2795,-110.9792 110.9629,-110.9792 65.693,0 110.9467,45.2671 110.9467,110.9792 0,60.4329 -38.4739,103.8469 -98.3138,110.9374 -12.5359,1.4854 -29.6509,0.9461 -38.0329,-1.1985 z m -2402.84,-5.08 c -53.941,-13.8012 -85.5924,-54.3956 -85.5629,-109.7389 0.051,-65.7277 45.2795,-110.9792 110.9629,-110.9792 65.693,0 110.9467,45.2671 110.9467,110.9792 0,60.4329 -38.4739,103.8469 -98.3138,110.9374 -12.5359,1.4854 -29.6509,0.9461 -38.0329,-1.1985 z m 8671.541,-478.0595 c -7.697,-8.5055 -8.239,-12.3195 -3.291,-23.1792 4.864,-10.6741 8.869,-12.7143 22.397,-11.4093 13.815,1.3326 16.737,3.8932 18.11,15.8663 3.085,26.9027 -19.521,38.2749 -37.216,18.7222 z m 434.614,2.8678 c -3.338,-4.0221 -5.332,-13.7376 -4.432,-21.59 1.373,-11.9731 4.295,-14.5337 18.11,-15.8663 13.528,-1.305 17.533,0.7352 22.397,11.4093 4.948,10.8597 4.406,14.6737 -3.291,23.1792 -10.825,11.9613 -24.262,13.1366 -32.784,2.8678 z M 343.26286,3050.177 c -11.59207,-11.592 -9.79357,-26.1565 4.37649,-35.4411 C 365.63006,3002.948 381,3012.2542 381,3034.9351 c 0,23.1347 -21.25821,31.7209 -37.73714,15.2419 z m 435.24714,4.6185 c -3.4925,-1.4092 -6.35,-10.2923 -6.35,-19.7402 0,-22.8033 15.32443,-32.1371 33.36066,-20.3194 27.14305,17.7849 3.75387,52.4733 -27.01066,40.0596 z M 16215.36,2009.1399 v -170.18 h 162.56 162.56 v 170.18 170.18 h -162.56 -162.56 z M 0,1871.9799 v -170.18 h 162.56 162.56 v 170.18 170.18 H 162.56 0 Z M 16215.36,678.17997 V 507.99998 h 162.56 162.56 v 170.17999 170.18 h -162.56 -162.56 z M 0,546.09998 V 375.91999 H 162.56 325.12 V 546.09998 716.27997 H 162.56 0 Z"
         id="path497" /><path
         style="fill:#545454;stroke-width:5.08"
         d="m 15539.72,6954.5197 v -228.6 h 213.36 213.36 v 228.6 228.6 h -213.36 -213.36 z m -14965.68,-5.08 v -228.6 h 213.36 213.36 v 228.6 228.6 H 787.4 574.04 Z M 15539.72,5270.4998 v -231.14 h 213.36 213.36 v 231.14 231.14 h -213.36 -213.36 z m -14965.68,-5.08 v -231.14 h 213.36 213.36 v 231.14 231.14 H 787.4 574.04 Z M 15732.658,4731.897 c -3.534,-4.2585 -5.442,-8.7265 -4.239,-9.9289 1.202,-1.2024 4.976,2.2818 8.386,7.7428 7.375,11.8095 4.916,13.1062 -4.147,2.1861 z m 30.582,5.8248 c 0,-1.0548 4,-5.0553 8.89,-8.89 8.057,-6.3188 8.237,-6.1392 1.918,1.918 -6.636,8.462 -10.808,11.1531 -10.808,6.972 z m 400.672,-6.972 c -6.319,-8.0572 -6.139,-8.2368 1.918,-1.918 4.89,3.8347 8.89,7.8352 8.89,8.89 0,4.1811 -4.172,1.49 -10.808,-6.972 z m 36.718,0.2312 c 3.699,-6.1595 7.819,-10.1055 9.155,-8.7691 1.337,1.3365 -1.69,6.376 -6.725,11.199 -8.747,8.3784 -8.856,8.2701 -2.43,-2.4299 z M 335.17812,4726.817 c -3.53426,-4.2585 -5.44213,-8.7265 -4.23972,-9.9289 1.20241,-1.2024 4.97654,2.2818 8.38695,7.7428 7.37521,11.8095 4.91555,13.1062 -4.14723,2.1861 z m 30.58188,5.8248 c 0,-1.0548 4.0005,-5.0553 8.89,-8.89 8.05716,-6.3188 8.23684,-6.1392 1.91798,1.918 -6.63636,8.462 -10.80798,11.1531 -10.80798,6.972 z m 400.672,-6.972 c -6.31886,-8.0572 -6.13918,-8.2368 1.918,-1.918 4.8895,3.8347 8.89,7.8352 8.89,8.89 0,4.1811 -4.17165,1.49 -10.808,-6.972 z m 36.71798,0.2312 c 3.699,-6.1595 7.81888,-10.1055 9.15533,-8.7691 1.33645,1.3365 -1.68996,6.376 -6.72541,11.199 -8.74746,8.3784 -8.85571,8.2701 -2.42992,-2.4299 z M 15746.73,4690.5554 c 3.492,-1.4092 9.208,-1.4092 12.7,0 3.493,1.4093 0.635,2.5623 -6.35,2.5623 -6.985,0 -9.842,-1.153 -6.35,-2.5623 z m 431.8,0 c 3.493,-1.4092 9.208,-1.4092 12.7,0 3.492,1.4093 0.635,2.5623 -6.35,2.5623 -6.985,0 -9.842,-1.153 -6.35,-2.5623 z m -15829.28,-5.08 c 3.4925,-1.4092 9.2075,-1.4092 12.7,0 3.4925,1.4093 0.635,2.5623 -6.35,2.5623 -6.985,0 -9.8425,-1.153 -6.35,-2.5623 z m 431.8,0 c 3.4925,-1.4092 9.2075,-1.4092 12.7,0 3.4925,1.4093 0.635,2.5623 -6.35,2.5623 -6.985,0 -9.8425,-1.153 -6.35,-2.5623 z M 15539.72,3594.0999 v -231.14 h 213.36 213.36 v 231.14 231.14 h -213.36 -213.36 z m -14965.68,-5.08 v -231.14 h 213.36 213.36 v 231.14 231.14 H 787.4 574.04 Z m 15167.61,-574.8644 c 3.493,-1.4092 9.208,-1.4092 12.7,0 3.493,1.4092 0.635,2.5623 -6.35,2.5623 -6.985,0 -9.843,-1.1531 -6.35,-2.5623 z m 431.8,0 c 3.493,-1.4092 9.207,-1.4092 12.7,0 3.493,1.4092 0.635,2.5623 -6.35,2.5623 -6.985,0 -9.842,-1.1531 -6.35,-2.5623 z"
         id="path495" /><path
         style="fill:#0047a5;stroke-width:5.08"
         d="m 50.8,7571.7397 v -393.7 h 375.92 375.92 v 50.8 50.8 h 83.82 83.82 v 317.5 317.5 h -83.82 -83.82 v 25.4 25.4 H 426.72 50.8 Z m 320.04,-45.72 c 5.41969,-6.5303 34.11427,-7.62 200.66,-7.62 166.54572,0 195.2403,1.0897 200.66,7.62 8.25983,9.9522 19.80301,9.6627 31.35,-0.7874 11.52749,-10.4323 11.80998,-21.0281 0.88265,-33.1028 -10.19769,-11.2679 -23.68672,-11.9669 -32.23265,-1.6698 -5.4197,6.5304 -34.11428,7.62 -200.66,7.62 -166.54573,0 -195.24031,-1.0896 -200.66,-7.62 -8.25981,-9.9522 -19.80299,-9.6626 -31.35,0.7874 -11.52746,10.4323 -11.80999,21.0282 -0.88266,33.1028 10.19768,11.268 23.68675,11.967 32.23266,1.6698 z M 1366.52,5250.1798 V 2534.9199 h 25.4 25.4 v 2715.2599 2715.2599 h -25.4 -25.4 z m 3489.96,749.3 v -1965.96 h -774.7 -774.7 v -764.5399 -764.54 h 25.4 25.4 v 739.14 739.14 h 774.7 774.7 v 1991.3599 1991.3599 h -25.4 -25.4 z M 50.8,6416.0398 v -304.8 h 375.92 375.92 v 22.86 22.86 h 81.28 81.28 v 231.14 231.14 h -81.28 -81.28 v 50.8 50.7999 H 426.72 50.8 Z m 325.12,-7.62 c 5.41969,-6.5304 34.11427,-7.62 200.66,-7.62 166.54572,0 195.2403,1.0896 200.66,7.62 8.25983,9.9522 19.80301,9.6626 31.35,-0.7874 11.52749,-10.4323 11.80998,-21.0282 0.88265,-33.1028 -10.19769,-11.268 -23.68672,-11.967 -32.23265,-1.6698 -5.4197,6.5303 -34.11428,7.62 -200.66,7.62 -166.54573,0 -195.24031,-1.0897 -200.66,-7.62 -8.25981,-9.9523 -19.80299,-9.6627 -31.35,0.7874 -11.52746,10.4322 -11.80999,21.0281 -0.88266,33.1028 10.19768,11.2679 23.68675,11.9669 32.23266,1.6698 z M 50.8,4124.9598 v -304.7999 h 375.92 375.92 v 50.8 50.8 h 81.28 81.28 v 228.5999 228.6 h -81.28 -81.28 v 25.4 25.4 H 426.72 50.8 Z m 332.01429,43.18 c 6.50342,-6.5034 35.64063,-7.62 198.84571,-7.62 163.20506,0 192.34226,1.1166 198.84573,7.62 9.86231,9.8624 24.39924,9.7093 34.47141,-0.3627 10.28075,-10.2807 10.13414,-21.86 -0.42469,-33.5271 -10.1977,-11.2683 -23.68672,-11.9672 -32.23265,-1.67 -5.4197,6.5303 -34.11429,7.62 -200.66,7.62 -166.54573,0 -195.24031,-1.0897 -200.66,-7.62 -8.25981,-9.9525 -19.803,-9.6626 -31.35,0.7873 -11.40145,10.3182 -11.91372,23.8032 -1.30714,34.4098 10.07214,10.0722 24.60911,10.2252 34.47142,0.3627 z M 50.8,2931.1599 v -426.72 h 375.92 375.92 v 50.8 50.8 H 889 975.36 v 325.12 325.12 H 889 802.64 v 50.8 50.8 H 426.72 50.8 Z m 326.93429,119.38 c 6.50342,-6.5034 35.64063,-7.62 198.84571,-7.62 163.20506,0 192.34226,1.1166 198.84573,7.62 9.86231,9.8623 24.39924,9.7093 34.47141,-0.3627 11.67958,-11.6796 9.76208,-26.1772 -4.71714,-35.6643 -11.70356,-7.6685 -13.68242,-7.6777 -25.22129,-0.1174 -10.96502,7.1847 -36.24229,8.2044 -203.37871,8.2044 -167.1364,0 -192.41369,-1.0197 -203.37873,-8.2043 -11.53886,-7.5605 -13.5177,-7.5513 -25.22127,0.1174 -14.47922,9.4871 -16.39674,23.9847 -4.71714,35.6643 10.07215,10.0721 24.60911,10.2252 34.47143,0.3627 z M 13172.44,1884.6799 V 1264.92 h -1676.4 -1676.4 V 657.85998 50.799998 h 25.4 25.4 V 632.45998 1214.12 h 1676.4 1676.4 v 645.1599 645.16 h -25.4 -25.4 z"
         id="path493" /><path
         style="fill:#a0000f;stroke-width:5.08"
         d="m 15727.68,7945.1197 v -25.4 h -78.74 -78.74 v -317.5 -317.5 h 78.74 78.74 v -50.8 -50.8 h 381 381 v 393.7 393.7 h -381 -381 z m 42.454,-414.02 c 6.503,-6.5034 35.641,-7.62 198.846,-7.62 163.205,0 192.343,1.1166 198.846,7.62 15.077,15.0769 42.454,3.6114 42.454,-17.78 0,-21.3914 -27.377,-32.8569 -42.454,-17.78 -6.503,6.5034 -35.641,7.62 -198.846,7.62 -163.205,0 -192.343,-1.1166 -198.846,-7.62 -15.077,-15.0769 -42.454,-3.6114 -42.454,17.78 0,21.3914 27.377,32.8569 42.454,17.78 z M 11623.04,5974.0798 V 3982.7199 h 774.7 774.7 v -739.14 -739.14 h 25.4 25.4 v 764.54 764.5399 h -774.7 -774.7 v 1965.96 1965.9599 h -25.4 -25.4 z m 3489.96,-723.9 V 2534.9199 h 25.4 25.4 v 2715.2599 2715.2599 h -25.4 -25.4 z m 614.68,1424.94 v -50.8 h -76.2 -76.2 v -231.14 -231.14 h 76.2 76.2 v -22.86 -22.86 h 381 381 v 304.8 304.7999 h -381 -381 z m 37.374,-261.62 c 6.503,-6.5035 35.641,-7.62 198.846,-7.62 163.205,0 192.343,1.1165 198.846,7.62 15.077,15.0769 42.454,3.6113 42.454,-17.78 0,-21.3914 -27.377,-32.857 -42.454,-17.78 -6.503,6.5034 -35.641,7.62 -198.846,7.62 -163.205,0 -192.343,-1.1166 -198.846,-7.62 -15.077,-15.077 -42.454,-3.6114 -42.454,17.78 0,21.3913 27.377,32.8569 42.454,17.78 z m -37.374,-2004.06 v -25.4 h -76.2 -76.2 v -228.6 -228.5999 h 76.2 76.2 v -50.8 -50.8 h 381 381 v 304.7999 304.8 h -381 -381 z m 32.294,-236.22 c 6.503,-6.5034 35.641,-7.62 198.846,-7.62 163.205,0 192.343,1.1166 198.846,7.62 9.862,9.8624 24.399,9.7093 34.471,-0.3627 10.281,-10.2807 10.134,-21.86 -0.426,-33.5271 -10.198,-11.2683 -23.687,-11.9672 -32.233,-1.67 -5.42,6.5303 -34.114,7.62 -200.66,7.62 -166.546,0 -195.24,-1.0897 -200.66,-7.62 -8.26,-9.9525 -19.803,-9.6626 -31.35,0.7873 -11.401,10.3182 -11.914,23.8032 -1.307,34.4098 10.072,10.0722 24.609,10.2252 34.471,0.3627 z m -32.294,-861.0599 v -50.8 h -81.28 -81.28 v -325.12 -325.12 h 81.28 81.28 v -50.8 -50.8 h 381 381 v 426.72 426.72 h -381 -381 z m 38.803,-256.54 c 2.529,-6.5897 29.221,-7.62 197.417,-7.62 171.727,0 194.85,0.9299 197.541,7.9444 2.096,5.4622 8.19,7.4463 19.503,6.35 12.627,-1.2237 17.575,-4.8063 21.281,-15.4106 8.505,-24.3365 -21.811,-45.9266 -37.665,-26.8238 -5.42,6.5303 -34.114,7.62 -200.66,7.62 -166.546,0 -195.24,-1.0897 -200.66,-7.62 -8.26,-9.9525 -19.803,-9.6626 -31.35,0.7873 -10.541,9.5392 -11.633,18.3628 -4.031,32.5666 6.412,11.9814 34.262,13.5721 38.624,2.2061 z M 3307.08,1859.2799 V 1214.12 h 1676.4 1676.4 V 632.45998 50.799998 h 25.4 25.4 V 657.85998 1264.92 h -1676.4 -1676.4 v 619.7599 619.76 h -25.4 -25.4 z"
         id="path491" /><path
         style="fill:#262626;stroke-width:5.08"
         d="m 3835.4,7233.9197 v -731.5199 h 76.2 76.2 v 731.5199 731.52 h -76.2 -76.2 z m 8742.68,0 v -731.5199 h 76.2 76.2 v 731.5199 731.52 h -76.2 -76.2 z M 2910.84,5267.9598 v -1234.44 h 180.34 180.34 v 1234.44 1234.44 h -180.34 -180.34 z m 1590.04,0 v -1234.44 h 177.8 177.8 v 1234.44 1234.44 h -177.8 -177.8 z m 7172.96,0 v -1234.44 h 172.72 172.72 v 1234.44 1234.44 h -172.72 -172.72 z m 1574.8,0 v -1234.44 h 180.34 180.34 v 1234.44 1234.44 h -180.34 -180.34 z m 2479.04,820.42 v -27.94 h -76.2 -76.2 v -228.6 -228.6 h 76.2 76.2 v -50.8 -50.8 h 381 381 v 307.34 307.34 h -381 -381 z m 37.374,-238.76 c 6.503,-6.5034 35.641,-7.62 198.846,-7.62 163.205,0 192.343,1.1166 198.846,7.62 15.077,15.0769 42.454,3.6114 42.454,-17.78 0,-21.3914 -27.377,-32.8569 -42.454,-17.78 -6.503,6.5034 -35.641,7.62 -198.846,7.62 -163.205,0 -192.343,-1.1166 -198.846,-7.62 -15.077,-15.0769 -42.454,-3.6114 -42.454,17.78 0,21.3914 27.377,32.8569 42.454,17.78 z M 50.8,5803.8998 v -307.34 h 375.92 375.92 v 50.8 50.8 h 81.28 81.28 v 228.6 228.6 h -81.28 -81.28 v 27.94 27.94 H 426.72 50.8 Z m 326.93429,40.64 c 6.50342,-6.5034 35.64063,-7.62 198.84571,-7.62 163.20506,0 192.34226,1.1166 198.84573,7.62 15.07693,15.0769 42.45427,3.6114 42.45427,-17.78 0,-21.3914 -27.37734,-32.8569 -42.45427,-17.78 -6.50347,6.5034 -35.64067,7.62 -198.84573,7.62 -163.20508,0 -192.34229,-1.1166 -198.84571,-7.62 -15.07694,-15.0769 -42.45429,-3.6114 -42.45429,17.78 0,21.3914 27.37735,32.8569 42.45429,17.78 z M 15727.68,4988.5598 v -50.8 h -76.2 -76.2 v -226.06 -226.06 h 76.2 76.2 v -25.4 -25.4 h 381 381 v 302.26 302.26 h -381 -381 z m 45.72,-256.54 c 5.414,-6.5238 33.55,-7.62 195.58,-7.62 162.03,0 190.166,1.0962 195.58,7.62 7.581,9.1345 31.108,10.0395 39.624,1.524 8.603,-8.6028 7.565,-24.5006 -2.311,-35.414 -10.198,-11.2683 -23.687,-11.9672 -32.233,-1.67 -5.42,6.5304 -34.114,7.62 -200.66,7.62 -166.546,0 -195.24,-1.0896 -200.66,-7.62 -8.26,-9.9525 -19.803,-9.6625 -31.35,0.7874 -10.612,9.6041 -12.171,27.3193 -3.194,36.2966 8.516,8.5155 32.043,7.6105 39.624,-1.524 z m -15722.6,0 v -302.26 h 375.92 375.92 v 25.4 25.4 h 81.28 81.28 v 226.06 226.06 h -81.28 -81.28 v 50.8 50.8 H 426.72 50.8 Z m 325.12,-5.08 c 5.41428,-6.5238 33.54983,-7.62 195.58,-7.62 162.03016,0 190.16574,1.0962 195.58,7.62 7.58099,9.1345 31.10855,10.0395 39.624,1.524 8.60278,-8.6028 7.56519,-24.5006 -2.31135,-35.414 -10.19769,-11.2683 -23.68672,-11.9672 -32.23265,-1.67 -5.4197,6.5304 -34.11428,7.62 -200.66,7.62 -166.54573,0 -195.24031,-1.0896 -200.66,-7.62 -8.25981,-9.9525 -19.80299,-9.6625 -31.35,0.7874 -10.61243,9.6041 -12.17132,27.3193 -3.194,36.2966 8.51543,8.5155 32.04302,7.6105 39.624,-1.524 z"
         id="path489" /></g></g></svg>
